<?xml version="1.0" encoding="UTF-8"?>
<!DOCTYPE svg PUBLIC "-//W3C//DTD SVG 1.1//EN" "http://www.w3.org/Graphics/SVG/1.1/DTD/svg11.dtd">
<svg xmlns="http://www.w3.org/2000/svg" version="1.1" width="880px" height="700px" style="shape-rendering:geometricPrecision; text-rendering:geometricPrecision; image-rendering:optimizeQuality; fill-rule:evenodd; clip-rule:evenodd" xmlns:xlink="http://www.w3.org/1999/xlink">
<g><path style="opacity:1" fill="#284168" d="M 261.5,-0.5 C 377.833,-0.5 494.167,-0.5 610.5,-0.5C 645.142,6.3055 666.642,26.9722 675,61.5C 675.667,158.833 675.667,256.167 675,353.5C 668.173,389.661 646.673,411.161 610.5,418C 536.167,418.333 461.833,418.667 387.5,419C 363.833,442.667 340.167,466.333 316.5,490C 306.694,495.731 299.194,493.564 294,483.5C 293.5,461.836 293.333,440.169 293.5,418.5C 264.447,422.868 238.947,415.535 217,396.5C 205.476,384.451 198.476,370.118 196,353.5C 195.014,254.804 195.347,156.137 197,57.5C 206.398,24.5977 227.898,5.26434 261.5,-0.5 Z M 281.5,102.5 C 330.501,102.333 379.501,102.5 428.5,103C 437.282,107.417 439.782,114.25 436,123.5C 434.062,126.106 431.562,127.939 428.5,129C 379.167,129.667 329.833,129.667 280.5,129C 271.238,124.078 269.071,116.911 274,107.5C 276.426,105.548 278.926,103.881 281.5,102.5 Z M 280.5,165.5 C 314.502,165.333 348.502,165.5 382.5,166C 391.486,171.296 393.319,178.463 388,187.5C 385.621,189.884 382.787,191.384 379.5,192C 347.167,192.667 314.833,192.667 282.5,192C 271.826,187.984 268.993,180.817 274,170.5C 275.965,168.45 278.132,166.783 280.5,165.5 Z M 417.5,197.5 C 431.641,196.361 444.808,199.361 457,206.5C 456.017,212.444 454.017,218.111 451,223.5C 441.984,217.605 432.15,215.439 421.5,217C 411.452,221.248 410.118,227.248 417.5,235C 424.592,238.586 431.925,241.586 439.5,244C 457.285,251.071 463.785,263.904 459,282.5C 455.197,291.991 448.364,298.157 438.5,301C 420.677,305.474 404.01,302.807 388.5,293C 390.323,287.342 392.989,282.175 396.5,277.5C 407.786,284.192 419.786,286.025 432.5,283C 438.025,280.081 439.858,275.581 438,269.5C 437.535,268.069 436.701,266.903 435.5,266C 424.332,261.388 413.332,256.388 402.5,251C 386.577,235.408 386.577,219.742 402.5,204C 407.367,201.226 412.367,199.059 417.5,197.5 Z M 508.5,197.5 C 533.885,195.094 551.718,205.427 562,228.5C 568.388,248.673 566.055,267.673 555,285.5C 551.088,290.083 546.588,293.917 541.5,297C 546.073,301.408 551.073,305.241 556.5,308.5C 556.833,309.333 557.167,310.167 557.5,311C 556.622,315.987 554.788,320.487 552,324.5C 539.383,320.441 528.883,313.274 520.5,303C 486.11,302.276 468.777,284.609 468.5,250C 468.537,222.154 481.87,204.654 508.5,197.5 Z M 577.5,199.5 C 584.833,199.5 592.167,199.5 599.5,199.5C 599.5,227.167 599.5,254.833 599.5,282.5C 613.167,282.5 626.833,282.5 640.5,282.5C 640.5,288.833 640.5,295.167 640.5,301.5C 619.5,301.5 598.5,301.5 577.5,301.5C 577.5,267.5 577.5,233.5 577.5,199.5 Z M 279.5,227.5 C 303.836,227.333 328.169,227.5 352.5,228C 360.224,232.838 362.057,239.338 358,247.5C 356.457,249.378 354.624,250.878 352.5,252C 328.167,252.667 303.833,252.667 279.5,252C 271.408,247.379 269.574,240.879 274,232.5C 275.73,230.598 277.563,228.931 279.5,227.5 Z"/></g>
<g><path style="opacity:1" fill="#284168" d="M 510.5,216.5 C 529.115,215.27 539.948,223.936 543,242.5C 545.103,256.945 541.27,269.445 531.5,280C 515.314,287.967 502.814,284.134 494,268.5C 488.832,254.53 489.498,240.864 496,227.5C 499.906,222.404 504.739,218.738 510.5,216.5 Z"/></g>
<g><path style="opacity:1" fill="#2a4268" d="M 206.5,576.5 C 212.758,576.19 218.924,576.524 225,577.5C 225.333,589.167 225.667,600.833 226,612.5C 230.989,606.421 237.489,603.088 245.5,602.5C 259.112,603.209 268.279,609.876 273,622.5C 276.977,637.381 274.977,651.381 267,664.5C 254.234,679.25 239.901,681.25 224,670.5C 222.833,672.333 221.667,674.167 220.5,676C 215.845,676.499 211.179,676.666 206.5,676.5C 206.5,643.167 206.5,609.833 206.5,576.5 Z M 235.5,618.5 C 246.398,617.023 252.564,621.69 254,632.5C 255.854,642.186 254.021,651.019 248.5,659C 237.653,665.274 229.986,662.607 225.5,651C 226.287,643.202 226.787,635.369 227,627.5C 228.688,623.315 231.521,620.315 235.5,618.5 Z"/></g>
<g><path style="opacity:1" fill="#2b4369" d="M 588.5,578.5 C 616.096,575.928 628.263,588.261 625,615.5C 624.101,619.538 622.434,623.205 620,626.5C 610.686,637.315 601.186,647.982 591.5,658.5C 603.482,659.499 615.482,659.832 627.5,659.5C 627.5,665.167 627.5,670.833 627.5,676.5C 606.5,676.5 585.5,676.5 564.5,676.5C 564.334,671.821 564.501,667.155 565,662.5C 576.333,649.833 587.667,637.167 599,624.5C 604.47,617.961 606.136,610.627 604,602.5C 599.307,595.452 593.14,593.952 585.5,598C 582.021,600.312 579.021,603.146 576.5,606.5C 572.485,602.315 568.818,597.815 565.5,593C 571.656,585.598 579.322,580.765 588.5,578.5 Z"/></g>
<g><path style="opacity:1" fill="#284168" d="M 666.5,578.5 C 679.304,577.465 691.304,579.965 702.5,586C 700.601,591.195 698.601,596.361 696.5,601.5C 687.146,596.162 677.146,594.328 666.5,596C 658.104,601.175 657.438,607.175 664.5,614C 672.422,617.197 680.422,620.197 688.5,623C 704.439,631.729 708.939,644.563 702,661.5C 693.822,672.837 682.656,678.17 668.5,677.5C 657.96,677.286 648.293,674.452 639.5,669C 640.769,663.754 642.269,658.588 644,653.5C 655.239,660.353 667.072,661.853 679.5,658C 685.221,653.285 685.888,647.952 681.5,642C 672.11,637.423 662.443,633.423 652.5,630C 640.515,621.188 637.015,609.688 642,595.5C 647.581,585.971 655.748,580.304 666.5,578.5 Z"/></g>
<g><path style="opacity:1" fill="#284168" d="M 801.5,699.5 C 800.167,699.5 798.833,699.5 797.5,699.5C 784.926,694.871 773.926,687.705 764.5,678C 731.332,677.832 714.332,661.165 713.5,628C 713.512,605.354 723.845,589.688 744.5,581C 783.432,573.127 804.432,588.96 807.5,628.5C 807.627,647.428 799.627,661.595 783.5,671C 790.731,676.785 798.731,681.285 807.5,684.5C 805.21,689.409 803.21,694.409 801.5,699.5 Z M 756.5,595.5 C 773.273,595.435 782.773,603.769 785,620.5C 786.75,632.422 784.416,643.422 778,653.5C 771.114,660.092 762.948,662.259 753.5,660C 743.256,656.046 737.423,648.546 736,637.5C 733.603,624.78 735.936,613.113 743,602.5C 746.96,598.938 751.46,596.605 756.5,595.5 Z"/></g>
<g><path style="opacity:1" fill="#294168" d="M -0.5,581.5 C -0.5,581.167 -0.5,580.833 -0.5,580.5C 6.83333,580.5 14.1667,580.5 21.5,580.5C 26.349,603.246 31.5156,625.912 37,648.5C 42.5053,625.813 48.0053,603.146 53.5,580.5C 61.4197,580.185 69.253,580.518 77,581.5C 82.8239,603.796 88.4906,626.129 94,648.5C 99.7395,625.97 104.906,603.304 109.5,580.5C 116.532,580.17 123.532,580.503 130.5,581.5C 122.356,612.743 114.523,644.077 107,675.5C 99.1965,675.514 91.3632,675.514 83.5,675.5C 77.234,653.201 71.0673,630.868 65,608.5C 59.0062,630.809 53.1729,653.143 47.5,675.5C 39.5803,675.185 31.747,675.518 24,676.5C 15.9661,644.695 7.79948,613.028 -0.5,581.5 Z"/></g>
<g><path style="opacity:1" fill="#274067" d="M 276.5,580.5 C 301.167,580.5 325.833,580.5 350.5,580.5C 350.5,586.5 350.5,592.5 350.5,598.5C 341.5,598.5 332.5,598.5 323.5,598.5C 323.5,624.167 323.5,649.833 323.5,675.5C 316.833,675.5 310.167,675.5 303.5,675.5C 303.5,649.833 303.5,624.167 303.5,598.5C 294.5,598.5 285.5,598.5 276.5,598.5C 276.5,592.5 276.5,586.5 276.5,580.5 Z"/></g>
<g><path style="opacity:1" fill="#274067" d="M 879.5,657.5 C 879.5,663.5 879.5,669.5 879.5,675.5C 859.792,675.475 840.292,675.475 821,675.5C 820.5,643.835 820.333,612.168 820.5,580.5C 827.5,580.5 834.5,580.5 841.5,580.5C 841.5,606.167 841.5,631.833 841.5,657.5C 854.167,657.5 866.833,657.5 879.5,657.5 Z"/></g>
<g><path style="opacity:0.039" fill="#aeb3bb" d="M 515.5,584.5 C 515.5,584.833 515.5,585.167 515.5,585.5C 515.158,586.338 514.492,586.672 513.5,586.5C 513.5,585.833 513.167,585.5 512.5,585.5C 512.804,583.204 513.804,582.871 515.5,584.5 Z"/></g>
<g><path style="opacity:0.051" fill="#b8bac1" d="M 515.5,584.5 C 515.917,583.876 516.584,583.543 517.5,583.5C 518.713,583.747 519.38,584.414 519.5,585.5C 518.833,585.5 518.167,585.5 517.5,585.5C 517.158,584.662 516.492,584.328 515.5,584.5 Z"/></g>
<g><path style="opacity:1" fill="#294268" d="M 529.5,586.5 C 529.5,586.833 529.5,587.167 529.5,587.5C 529.5,593.167 529.5,598.833 529.5,604.5C 532.167,604.5 534.833,604.5 537.5,604.5C 537.833,604.5 538.167,604.5 538.5,604.5C 541.167,604.5 543.833,604.5 546.5,604.5C 547.487,609.305 547.821,614.305 547.5,619.5C 541.5,619.5 535.5,619.5 529.5,619.5C 529.5,622.5 529.5,625.5 529.5,628.5C 529.5,628.833 529.5,629.167 529.5,629.5C 529.5,635.167 529.5,640.833 529.5,646.5C 529.5,646.833 529.5,647.167 529.5,647.5C 528.99,651.813 529.657,655.813 531.5,659.5C 531.842,660.338 532.508,660.672 533.5,660.5C 536.167,661.833 538.833,661.833 541.5,660.5C 542.5,660.5 543.5,660.5 544.5,660.5C 545.167,660.167 545.833,659.833 546.5,659.5C 546.833,659.5 547.167,659.5 547.5,659.5C 548.167,659.5 548.833,659.5 549.5,659.5C 549.5,659.833 549.5,660.167 549.5,660.5C 549.5,661.167 549.5,661.833 549.5,662.5C 549.263,663.791 549.596,664.791 550.5,665.5C 550.5,665.833 550.5,666.167 550.5,666.5C 550.5,666.833 550.5,667.167 550.5,667.5C 551.39,669.782 551.556,672.115 551,674.5C 550.329,675.252 549.496,675.586 548.5,675.5C 548.167,675.5 547.833,675.5 547.5,675.5C 543.674,677 539.674,677.666 535.5,677.5C 535.167,677.5 534.833,677.5 534.5,677.5C 533.5,677.5 532.5,677.5 531.5,677.5C 530.833,677.5 530.167,677.5 529.5,677.5C 525.908,677.302 522.574,676.302 519.5,674.5C 519.5,673.833 519.167,673.5 518.5,673.5C 518.167,673.5 517.833,673.5 517.5,673.5C 517.167,672.5 516.5,671.833 515.5,671.5C 513.357,669.869 511.69,667.869 510.5,665.5C 510.5,665.167 510.5,664.833 510.5,664.5C 510.5,664.167 510.5,663.833 510.5,663.5C 510.5,662.833 510.167,662.5 509.5,662.5C 509.784,660.585 509.451,658.919 508.5,657.5C 509.11,656.609 509.443,655.609 509.5,654.5C 509.5,653.833 509.5,653.167 509.5,652.5C 509.5,651.833 509.5,651.167 509.5,650.5C 509.5,649.167 509.5,647.833 509.5,646.5C 508.882,642.427 508.882,638.427 509.5,634.5C 509.5,633.5 509.5,632.5 509.5,631.5C 509.324,627.711 509.324,623.711 509.5,619.5C 505.298,619.817 501.298,619.483 497.5,618.5C 497.5,618.167 497.5,617.833 497.5,617.5C 497.5,617.167 497.5,616.833 497.5,616.5C 497.5,615.167 497.5,613.833 497.5,612.5C 497.5,611.833 497.5,611.167 497.5,610.5C 497.5,609.833 497.5,609.167 497.5,608.5C 497.5,608.167 497.5,607.833 497.5,607.5C 497.5,606.833 497.5,606.167 497.5,605.5C 497.5,605.167 497.5,604.833 497.5,604.5C 497.833,604.5 498.167,604.5 498.5,604.5C 502.167,604.5 505.833,604.5 509.5,604.5C 509.271,599.396 508.938,594.229 508.5,589C 509.384,587.28 510.717,586.114 512.5,585.5C 513.167,585.5 513.5,585.833 513.5,586.5C 514.492,586.672 515.158,586.338 515.5,585.5C 516.167,585.5 516.833,585.5 517.5,585.5C 518.167,585.5 518.833,585.5 519.5,585.5C 522.748,585.099 525.915,584.432 529,583.5C 529.483,584.448 529.649,585.448 529.5,586.5 Z"/></g>
<g><path style="opacity:0.238" fill="#b1b4ba" d="M 529.5,587.5 C 529.5,587.167 529.5,586.833 529.5,586.5C 530.212,585.261 531.212,584.761 532.5,585C 531.688,591.085 531.188,597.252 531,603.5C 530.827,597.984 530.327,592.651 529.5,587.5 Z"/></g>
<g><path style="opacity:1" fill="#294268" d="M 160.5,602.5 C 177.708,601.875 188.541,609.875 193,626.5C 193.5,632.825 193.666,639.158 193.5,645.5C 178.833,645.5 164.167,645.5 149.5,645.5C 151.386,659.625 159.386,665.125 173.5,662C 178.305,661.233 182.639,659.4 186.5,656.5C 188.459,660.875 190.125,665.375 191.5,670C 185.966,674.257 179.632,676.591 172.5,677C 150.962,680.33 136.796,671.83 130,651.5C 127.199,637.045 130.199,624.045 139,612.5C 145.183,606.822 152.349,603.489 160.5,602.5 Z M 160.5,616.5 C 170.26,616.427 175.26,621.26 175.5,631C 174.57,631.991 173.404,632.491 172,632.5C 164.655,631.986 157.155,631.652 149.5,631.5C 149.784,623.899 153.451,618.899 160.5,616.5 Z"/></g>
<g><path style="opacity:0.028" fill="#babdc2" d="M 538.5,604.5 C 538.167,604.5 537.833,604.5 537.5,604.5C 536.737,603.732 535.737,603.232 534.5,603C 536.794,600.784 538.128,601.284 538.5,604.5 Z"/></g>
<g><path style="opacity:1" fill="#284168" d="M 377.5,602.5 C 395.189,602.031 406.022,610.364 410,627.5C 410.667,633.167 410.667,638.833 410,644.5C 395.579,645.49 381.079,645.824 366.5,645.5C 368.615,659.915 376.948,665.415 391.5,662C 395.975,660.845 400.142,659.012 404,656.5C 405.423,661.024 406.923,665.524 408.5,670C 402.978,674.288 396.645,676.621 389.5,677C 371.079,680.204 357.579,673.704 349,657.5C 345.189,644.568 345.856,631.901 351,619.5C 357.039,609.402 365.872,603.735 377.5,602.5 Z M 377.5,616.5 C 387.231,616.397 392.231,621.231 392.5,631C 384.003,632.469 375.336,632.969 366.5,632.5C 366.349,624.349 370.016,619.016 377.5,616.5 Z"/></g>
<g><path style="opacity:1" fill="#284168" d="M 416.5,605.5 C 424.323,604.344 432.323,604.177 440.5,605C 445.056,611.957 449.723,618.791 454.5,625.5C 458.833,618.833 463.167,612.167 467.5,605.5C 475.167,604.167 482.833,604.167 490.5,605.5C 482.41,616.679 474.076,627.679 465.5,638.5C 474.134,650.934 483.134,663.1 492.5,675C 484.479,675.832 476.479,675.665 468.5,674.5C 463.821,667.144 458.655,660.144 453,653.5C 448.043,660.58 443.21,667.747 438.5,675C 430.833,675.667 423.167,675.667 415.5,675C 424.907,663.513 433.574,651.513 441.5,639C 433.703,627.378 425.369,616.212 416.5,605.5 Z"/></g>
<g><path style="opacity:0.054" fill="#b0b2b9" d="M 546.5,604.5 C 546.56,603.957 546.893,603.624 547.5,603.5C 548.318,606.107 548.818,608.774 549,611.5C 549.333,610.833 549.667,610.167 550,609.5C 550.667,613.167 550.667,616.833 550,620.5C 549.667,619.167 549.333,617.833 549,616.5C 548.917,618.506 548.417,619.506 547.5,619.5C 547.821,614.305 547.487,609.305 546.5,604.5 Z"/></g>
<g><path style="opacity:0.198" fill="#b5b7bd" d="M 498.5,604.5 C 498.167,604.5 497.833,604.5 497.5,604.5C 496.167,604.833 496.167,605.167 497.5,605.5C 497.5,606.167 497.5,606.833 497.5,607.5C 496.167,607.833 496.167,608.167 497.5,608.5C 497.5,609.167 497.5,609.833 497.5,610.5C 496.167,611.167 496.167,611.833 497.5,612.5C 497.5,613.833 497.5,615.167 497.5,616.5C 496.167,616.833 496.167,617.167 497.5,617.5C 497.5,617.833 497.5,618.167 497.5,618.5C 496.883,618.611 496.383,618.944 496,619.5C 495.174,614.025 495.008,608.692 495.5,603.5C 496.791,603.263 497.791,603.596 498.5,604.5 Z"/></g>
<g><path style="opacity:0.19" fill="#b5b6bd" d="M 529.5,647.5 C 529.5,647.167 529.5,646.833 529.5,646.5C 530.833,640.833 530.833,635.167 529.5,629.5C 529.5,629.167 529.5,628.833 529.5,628.5C 530.473,626.052 530.806,623.385 530.5,620.5C 533.518,620.335 536.518,620.502 539.5,621C 536.854,621.497 534.187,621.664 531.5,621.5C 532.122,633.033 531.956,644.7 531,656.5C 530.819,653.305 530.319,650.305 529.5,647.5 Z"/></g>
<g><path style="opacity:0.037" fill="#babcc2" d="M 509.5,631.5 C 509.5,632.5 509.5,633.5 509.5,634.5C 508.577,635.303 507.577,635.47 506.5,635C 507.163,633.482 508.163,632.315 509.5,631.5 Z"/></g>
<g><path style="opacity:0.024" fill="#bbbec4" d="M 509.5,646.5 C 509.5,647.833 509.5,649.167 509.5,650.5C 507.219,648.968 507.219,647.634 509.5,646.5 Z"/></g>
<g><path style="opacity:0.031" fill="#babec4" d="M 509.5,652.5 C 509.5,653.167 509.5,653.833 509.5,654.5C 507.067,654.214 507.067,653.548 509.5,652.5 Z"/></g>
<g><path style="opacity:0.047" fill="#b4b6be" d="M 549.5,659.5 C 548.833,659.5 548.167,659.5 547.5,659.5C 547.5,658.833 547.167,658.5 546.5,658.5C 546.62,657.414 547.287,656.747 548.5,656.5C 550.803,656.876 551.137,657.876 549.5,659.5 Z"/></g>
<g><path style="opacity:0.024" fill="#b2b5bc" d="M 541.5,660.5 C 538.833,661.833 536.167,661.833 533.5,660.5C 532.508,660.672 531.842,660.338 531.5,659.5C 535.413,658.404 539.413,658.238 543.5,659C 541.833,659.333 540.167,659.667 538.5,660C 539.448,660.483 540.448,660.649 541.5,660.5 Z"/></g>
<g><path style="opacity:0.035" fill="#b7bac0" d="M 546.5,658.5 C 546.5,658.833 546.5,659.167 546.5,659.5C 545.833,659.833 545.167,660.167 544.5,660.5C 544.343,659.127 544.51,657.793 545,656.5C 545.278,657.416 545.778,658.082 546.5,658.5 Z"/></g>
<g><path style="opacity:0.173" fill="#b6b7bd" d="M 549.5,660.5 C 549.5,660.167 549.5,659.833 549.5,659.5C 551.056,660.291 552.39,660.624 553.5,660.5C 551.722,661.726 550.722,663.393 550.5,665.5C 549.596,664.791 549.263,663.791 549.5,662.5C 550.833,661.833 550.833,661.167 549.5,660.5 Z"/></g>
<g><path style="opacity:0.085" fill="#b8bbc1" d="M 508.5,657.5 C 508.216,659.415 508.549,661.081 509.5,662.5C 510.167,662.5 510.5,662.833 510.5,663.5C 510.5,663.833 510.5,664.167 510.5,664.5C 509.167,664.833 509.167,665.167 510.5,665.5C 509.811,666.774 508.977,666.774 508,665.5C 507.199,662.633 507.366,659.966 508.5,657.5 Z"/></g>
<g><path style="opacity:0.047" fill="#b9bac0" d="M 550.5,667.5 C 550.5,667.167 550.5,666.833 550.5,666.5C 551.222,666.082 551.722,665.416 552,664.5C 552.725,666.157 552.225,667.157 550.5,667.5 Z"/></g>
<g><path style="opacity:0.031" fill="#babdc3" d="M 515.5,671.5 C 516.5,671.833 517.167,672.5 517.5,673.5C 515.007,673.869 514.34,673.203 515.5,671.5 Z"/></g>
<g><path style="opacity:0.024" fill="#b2b4bc" d="M 518.5,673.5 C 519.167,673.5 519.5,673.833 519.5,674.5C 519.631,675.239 519.464,675.906 519,676.5C 517.475,676.112 515.808,676.112 514,676.5C 513.833,676.167 513.667,675.833 513.5,675.5C 515.291,674.83 516.958,674.163 518.5,673.5 Z"/></g>
<g><path style="opacity:0.098" fill="#b7b8be" d="M 547.5,675.5 C 547.833,675.5 548.167,675.5 548.5,675.5C 550.628,676.281 550.795,677.281 549,678.5C 547.961,677.756 547.461,676.756 547.5,675.5 Z"/></g>
<g><path style="opacity:0.024" fill="#b9b9be" d="M 529.5,677.5 C 530.167,677.5 530.833,677.5 531.5,677.5C 533.054,678.895 532.721,679.561 530.5,679.5C 528.279,679.561 527.946,678.895 529.5,677.5 Z"/></g>
<g><path style="opacity:0.047" fill="#bababf" d="M 534.5,677.5 C 534.833,677.5 535.167,677.5 535.5,677.5C 535.918,678.222 536.584,678.722 537.5,679C 536.167,679.667 534.833,679.667 533.5,679C 534.056,678.617 534.389,678.117 534.5,677.5 Z"/></g>
</svg>
